HIERARCHY
ROOT Hips
{
  OFFSET 0.265311 15.6932 -0.0207187
  CHANNELS 6 Xposition Yposition Zposition Zrotation Xrotation Yrotation
  JOINT LHipJoint
  {
    OFFSET 0 0 0
    CHANNELS 6 Xposition Yposition Zposition Zrotation Xrotation Yrotation
    JOINT LeftUpLeg
    {
      OFFSET 1.36306 -1.79463 0.83929
      CHANNELS 6 Xposition Yposition Zposition Zrotation Xrotation Yrotation
      JOINT LeftLeg
      {
        OFFSET 2.44811 -6.72613 0
        CHANNELS 6 Xposition Yposition Zposition Zrotation Xrotation Yrotation
        JOINT LeftFoot
        {
          OFFSET 2.5622 -7.03959 0
          CHANNELS 6 Xposition Yposition Zposition Zrotation Xrotation Yrotation
          JOINT LeftToeBase
          {
            OFFSET 0.15764 -0.43311 2.32255
            CHANNELS 6 Xposition Yposition Zposition Zrotation Xrotation Yrotation
            End Site
            {
              OFFSET 0 0 0
            }
          }
        }
      }
    }
  }
  JOINT RHipJoint
  {
    OFFSET 0 0 0
    CHANNELS 6 Xposition Yposition Zposition Zrotation Xrotation Yrotation
    JOINT RightUpLeg
    {
      OFFSET -1.30552 -1.79463 0.83929
      CHANNELS 6 Xposition Yposition Zposition Zrotation Xrotation Yrotation
      JOINT RightLeg
      {
        OFFSET -2.54253 -6.98555 0
        CHANNELS 6 Xposition Yposition Zposition Zrotation Xrotation Yrotation
        JOINT RightFoot
        {
          OFFSET -2.56826 -7.05623 0
          CHANNELS 6 Xposition Yposition Zposition Zrotation Xrotation Yrotation
          JOINT RightToeBase
          {
            OFFSET -0.16473 -0.45259 2.36315
            CHANNELS 6 Xposition Yposition Zposition Zrotation Xrotation Yrotation
            End Site
            {
              OFFSET 0 0 0
            }
          }
        }
      }
    }
  }
  JOINT LowerBack
  {
    OFFSET 0 0 0
    CHANNELS 6 Xposition Yposition Zposition Zrotation Xrotation Yrotation
    JOINT Spine
    {
      OFFSET 0.02827 2.03559 -0.19338
      CHANNELS 6 Xposition Yposition Zposition Zrotation Xrotation Yrotation
      JOINT Spine1
      {
        OFFSET 0.05672 2.04885 -0.04275
        CHANNELS 6 Xposition Yposition Zposition Zrotation Xrotation Yrotation
        JOINT Neck
        {
          OFFSET 0 0 0
          CHANNELS 6 Xposition Yposition Zposition Zrotation Xrotation Yrotation
          JOINT Neck1
          {
            OFFSET -0.05417 1.74624 0.17202
            CHANNELS 6 Xposition Yposition Zposition Zrotation Xrotation Yrotation
            JOINT Head
            {
              OFFSET 0.10407 1.76136 -0.12397
              CHANNELS 6 Xposition Yposition Zposition Zrotation Xrotation Yrotation
              End Site
              {
                OFFSET 0 0 0
              }
            }
          }
        }
        JOINT LeftShoulder
        {
          OFFSET 0 0 0
          CHANNELS 6 Xposition Yposition Zposition Zrotation Xrotation Yrotation
          JOINT LeftArm
          {
            OFFSET 3.36241 1.20089 -0.31121
            CHANNELS 6 Xposition Yposition Zposition Zrotation Xrotation Yrotation
            JOINT LeftForeArm
            {
              OFFSET 4.983 0 0
              CHANNELS 6 Xposition Yposition Zposition Zrotation Xrotation Yrotation
              JOINT LeftHand
              {
                OFFSET 3.48356 0 0
                CHANNELS 6 Xposition Yposition Zposition Zrotation Xrotation Yrotation
                JOINT LeftFingerBase
                {
                  OFFSET 0 0 0
                  CHANNELS 6 Xposition Yposition Zposition Zrotation Xrotation Yrotation
                  JOINT LeftHandIndex1
                  {
                    OFFSET 0.71526 0 0
                    CHANNELS 6 Xposition Yposition Zposition Zrotation Xrotation Yrotation
                    End Site
                    {
                      OFFSET 0 0 0
                    }
                  }
                }
                JOINT LThumb
                {
                  OFFSET 0 0 0
                  CHANNELS 6 Xposition Yposition Zposition Zrotation Xrotation Yrotation
                  End Site
                  {
                    OFFSET 0 0 0
                  }
                }
              }
            }
          }
        }
        JOINT RightShoulder
        {
          OFFSET 0 0 0
          CHANNELS 6 Xposition Yposition Zposition Zrotation Xrotation Yrotation
          JOINT RightArm
          {
            OFFSET -3.1366 1.37405 -0.40465
            CHANNELS 6 Xposition Yposition Zposition Zrotation Xrotation Yrotation
            JOINT RightForeArm
            {
              OFFSET -5.2419 0 0
              CHANNELS 6 Xposition Yposition Zposition Zrotation Xrotation Yrotation
              JOINT RightHand
              {
                OFFSET -3.44417 0 0
                CHANNELS 6 Xposition Yposition Zposition Zrotation Xrotation Yrotation
                JOINT RightFingerBase
                {
                  OFFSET 0 0 0
                  CHANNELS 6 Xposition Yposition Zposition Zrotation Xrotation Yrotation
                  JOINT RightHandIndex1
                  {
                    OFFSET -0.62253 0 0
                    CHANNELS 6 Xposition Yposition Zposition Zrotation Xrotation Yrotation
                    End Site
                    {
                      OFFSET 0 0 0
                    }
                  }
                }
                JOINT RThumb
                {
                  OFFSET 0 0 0
                  CHANNELS 6 Xposition Yposition Zposition Zrotation Xrotation Yrotation
                  End Site
                  {
                    OFFSET 0 0 0
                  }
                }
              }
            }
          }
        }
      }
    }
  }
}
MOTION
Frames:	6
Frame Time:	0.00833333
0.265311 15.6932 -0.0207187 -0.588406 8.61956 2.50124 0 0 0 -0.299681 5.35791 18.0368 1.36306 -1.79463 0.83929 -25.1707 -46.4981 -18.634 2.44811 -6.72613 1.77636e-015 -10.2432 67.9535 50.9721 2.5622 -7.03959 -4.44089e-016 -15.5417 -0.619467 -4.92618 0.15764 -0.43311 2.32255 -3.18055e-015 -1.59028e-015 -6.36111e-015 0 0 0 -8.85582 0.425549 -20.6242 -1.30552 -1.79463 0.83929 51.7993 -22.7393 30.027 -2.54253 -6.98555 0 -6.10364 56.643 -44.3634 -2.56826 -7.05623 -4.44089e-016 21.8323 2.9836 5.56245 -0.16473 -0.45259 2.36315 3.06716e-006 9.2288e-007 7.38377e-007 0 0 0 -1.93281 -2.12354 0.12108 0.02827 2.03559 -0.19338 7.65033 45.0083 8.81719 0.05672 2.04885 -0.04275 6.24983 -2.56094 10.4237 0 0 0 -1.00717 -9.92048 -0.0272341 -0.05417 1.74624 0.17202 2.43773 26.9011 -1.27783 0.10407 1.76136 -0.12397 -2.20695e-032 3.18055e-015 3.97569e-016 0 0 0 13.4913 -5.40754 23.2949 3.36241 1.20089 -0.31121 -87.7462 37.4135 9.53489 4.983 1.77636e-015 -3.55271e-015 -21.9552 -1.75334 -48.7053 3.48356 -1.77636e-015 -8.88178e-016 1.15778 -0.238332 -0.259709 0 0 0 -0.121029 -5.06546e-007 -1.14815 0.71526 0 -8.88178e-016 -7.95139e-016 1.59028e-015 -0 0 0 0 7.95139e-016 7.95139e-016 1.59028e-015 0 0 0 -13.8327 -3.67342 -21.4536 -3.1366 1.37405 -0.40465 68.7584 6.76196 34.9079 -5.2419 -8.88178e-016 4.44089e-016 -13.455 32.0122 78.6853 -3.44417 0 -1.77636e-015 -4.38725 -0.41957 0.110908 0 0 0 0.388209 -6.05242e-006 2.4941 -0.62253 1.77636e-015 -1.77636e-015 3.18055e-015 -7.95139e-016 1.98785e-015 0 0 0 6.36111e-015 -2.38542e-015 -3.97569e-015 
0.247068 15.8009 0.349957 -0.0849799 8.31165 2.82744 0 0 0 -0.299681 5.35791 18.0368 1.36306 -1.79463 0.83929 -26.1863 -45.903 -18.6363 2.44811 -6.72613 0 -7.42859 65.2935 46.9062 2.5622 -7.03959 -6.66134e-016 -15.997 1.17067 -3.95097 0.15764 -0.43311 2.32255 0.344478 1.40041 0.864907 0 0 0 -8.85582 0.425549 -20.6242 -1.30552 -1.79463 0.83929 49.9677 -21.2845 28.6944 -2.54253 -6.98555 -8.88178e-016 -6.30377 56.1987 -42.8831 -2.56826 -7.05623 0 21.6014 3.25131 5.3507 -0.16473 -0.45259 2.36315 0.0658369 -1.92283 0.973549 0 0 0 -1.93281 -2.12354 0.12108 0.02827 2.03559 -0.19338 7.47077 44.6906 8.9092 0.05672 2.04885 -0.04275 5.97604 -3.30956 10.5042 0 0 0 -1.22149 -10.3526 -0.0127403 -0.05417 1.74624 0.17202 2.19172 26.4713 -1.1998 0.10407 1.76136 -0.12397 0.417173 2.62388 -0.255767 0 0 0 13.602 -6.04222 23.4486 3.36241 1.20089 -0.31121 -85.6907 36.9636 8.81566 4.983 0 3.55271e-015 -22.8933 -2.45758 -49.0007 3.48356 0 0 1.6216 -0.21412 -0.336102 0 0 0 -0.121029 -5.06546e-007 -1.14815 0.71526 1.77636e-015 0 7.95139e-016 -3.18055e-015 -0 0 0 0 1.19271e-015 -1.59028e-015 -0 0 0 0 -13.9565 -4.26766 -21.7412 -3.1366 1.37405 -0.40465 68.5187 8.0806 32.6834 -5.2419 -8.88178e-016 0 -12.6031 33.1842 76.9402 -3.44417 0 0 -2.8425 -0.592378 -0.144149 0 0 0 0.388209 -6.05242e-006 2.4941 -0.62253 0 0 -3.18055e-015 7.95139e-016 -6.36111e-015 0 0 0 -9.54166e-015 7.95139e-015 -7.95139e-016 
0.22842 15.9085 0.718116 0.428289 8.02265 3.15613 0 0 0 -0.299681 5.35791 18.0368 1.36306 -1.79463 0.83929 -27.2741 -45.35 -18.686 2.44811 -6.72613 0 -5.45265 62.518 43.7362 2.5622 -7.03959 -7.77156e-016 -16.4886 2.99595 -2.96712 0.15764 -0.43311 2.32255 0.656687 2.85466 1.76599 0 0 0 -8.85582 0.425549 -20.6242 -1.30552 -1.79463 0.83929 48.2124 -19.7788 27.4161 -2.54253 -6.98555 -8.88178e-016 -6.47298 55.6923 -41.4409 -2.56826 -7.05623 -4.44089e-016 21.4441 3.38678 5.20767 -0.16473 -0.45259 2.36315 0.189102 -3.76036 1.88518 0 0 0 -1.93281 -2.12354 0.12108 0.02827 2.03559 -0.19338 7.29233 44.3755 9.00236 0.05672 2.04885 -0.04275 5.7104 -4.05723 10.5897 0 0 0 -1.43507 -10.8022 0.00124618 -0.05417 1.74624 0.17202 1.94752 26.0239 -1.12232 0.10407 1.76136 -0.12397 0.821173 5.23218 -0.500807 0 0 0 13.6989 -6.671 23.6199 3.36241 1.20089 -0.31121 -83.6323 36.4959 8.07437 4.983 3.55271e-015 3.55271e-015 -23.8457 -3.1823 -49.2889 3.48356 -1.77636e-015 4.44089e-016 2.04971 -0.188094 -0.425552 0 0 0 -0.121029 -5.06546e-007 -1.14815 0.71526 0 4.44089e-016 -3.97569e-016 0 2.38542e-015 0 0 0 -7.95139e-016 -1.59028e-015 7.95139e-016 0 0 0 -14.0894 -4.86803 -22.0236 -3.1366 1.37405 -0.40465 68.3986 9.48085 30.5077 -5.2419 8.88178e-016 0 -11.643 34.2344 75.0504 -3.44417 -8.88178e-016 1.77636e-015 -1.28128 -0.776008 -0.430956 0 0 0 0.388209 -6.05242e-006 2.4941 -0.62253 0 -1.77636e-015 -3.18055e-015 1.59028e-015 -2.38542e-015 0 0 0 -3.18055e-015 1.59028e-015 -3.97569e-015 
0.21058 16.0162 1.09131 0.93245 7.69555 3.47859 0 0 0 -0.299681 5.35791 18.0368 1.36306 -1.79463 0.83929 -28.2175 -44.7137 -18.6469 2.44811 -6.72613 0 -4.06166 59.7001 41.1926 2.5622 -7.03959 -4.44089e-016 -17.0903 4.761 -2.00557 0.15764 -0.43311 2.32255 0.906351 4.19741 2.60093 0 0 0 -8.85582 0.425549 -20.6242 -1.30552 -1.79463 0.83929 46.5281 -18.2541 26.1675 -2.54253 -6.98555 0 -6.57467 55.239 -40.0351 -2.56826 -7.05623 -2.22045e-016 21.1456 3.78713 4.92721 -0.16473 -0.45259 2.36315 0.39429 -5.76181 2.93383 0 0 0 -1.93281 -2.12354 0.12108 0.02827 2.03559 -0.19338 7.11585 44.0553 9.09105 0.05672 2.04885 -0.04275 5.43489 -4.80565 10.6709 0 0 0 -1.64944 -11.2169 0.0163679 -0.05417 1.74624 0.17202 1.70361 25.6114 -1.04566 0.10407 1.76136 -0.12397 1.32236 7.871 -0.773786 0 0 0 13.8339 -7.30737 23.7663 3.36241 1.20089 -0.31121 -81.6233 36.0476 7.40416 4.983 1.77636e-015 -1.77636e-015 -24.792 -3.84142 -49.6219 3.48356 1.77636e-015 -4.44089e-016 2.54944 -0.165698 -0.488887 0 0 0 -0.121029 -5.06546e-007 -1.14815 0.71526 -1.77636e-015 -2.22045e-016 -3.57812e-015 0 3.97569e-016 0 0 0 1.2921e-015 0 -7.95139e-016 0 0 0 -14.2223 -5.44875 -22.3251 -3.1366 1.37405 -0.40465 68.3326 10.846 28.2454 -5.2419 -8.88178e-016 -4.44089e-016 -10.6944 35.2937 73.0914 -3.44417 -8.88178e-016 1.77636e-015 0.242391 -0.937939 -0.654321 0 0 0 0.388209 -6.05242e-006 2.4941 -0.62253 0 -1.77636e-015 5.95877e-031 -4.77083e-015 7.15625e-015 0 0 0 -3.18055e-015 -1.59028e-015 -7.95139e-016 
0.19476 16.1239 1.47709 1.40963 7.27342 3.78605 0 0 0 -0.299681 5.35791 18.0368 1.36306 -1.79463 0.83929 -28.8096 -43.8677 -18.3912 2.44811 -6.72613 0 -3.06967 56.8969 39.0683 2.5622 -7.03959 0 -17.8652 6.3703 -1.09769 0.15764 -0.43311 2.32255 1.08195 5.26458 3.26539 0 0 0 -8.85582 0.425549 -20.6242 -1.30552 -1.79463 0.83929 44.91 -16.7412 24.923 -2.54253 -6.98555 0 -6.59081 54.9547 -38.6447 -2.56826 -7.05623 4.44089e-016 20.5075 4.85049 4.30323 -0.16473 -0.45259 2.36315 0.754124 -8.17236 4.32527 0 0 0 -1.93281 -2.12354 0.12108 0.02827 2.03559 -0.19338 6.94209 43.7226 9.16976 0.05672 2.04885 -0.04275 5.13101 -5.55664 10.7382 0 0 0 -1.86613 -11.5443 0.0342649 -0.05417 1.74624 0.17202 1.45815 25.2859 -0.96992 0.10407 1.76136 -0.12397 2.03921 10.5862 -1.11463 0 0 0 14.0575 -7.96565 23.8457 3.36241 1.20089 -0.31121 -79.7101 35.6582 6.89472 4.983 1.77636e-015 0 -25.7122 -4.34807 -50.0472 3.48356 0 0 3.22804 -0.15238 -0.486932 0 0 0 -0.121029 -5.06546e-007 -1.14815 0.71526 -1.77636e-015 0 -6.01324e-015 -1.59028e-015 2.5842e-015 0 0 0 4.87022e-015 0 -1.19271e-015 0 0 0 -14.3463 -5.9838 -22.6697 -3.1366 1.37405 -0.40465 68.2474 12.0498 25.7557 -5.2419 8.88178e-016 0 -9.8654 36.5105 71.134 -3.44417 1.77636e-015 0 1.67601 -1.04569 -0.719027 0 0 0 0.388209 -6.05242e-006 2.4941 -0.62253 0 0 3.18055e-015 0 3.97569e-015 0 0 0 0 3.18055e-015 -0 
0.180693 16.2329 1.87725 1.86431 6.73717 4.08239 0 0 0 -0.299681 5.35791 18.0368 1.36306 -1.79463 0.83929 -29.0553 -42.7649 -17.9287 2.44811 -6.72613 0 -2.34148 54.0323 37.179 2.5622 -7.03959 -4.44089e-016 -18.8551 7.82607 -0.230863 0.15764 -0.43311 2.32255 1.18304 5.99434 3.70871 0 0 0 -8.85582 0.425549 -20.6242 -1.30552 -1.79463 0.83929 43.3276 -15.2439 23.6517 -2.54253 -6.98555 0 -6.51602 54.9348 -37.1196 -2.56826 -7.05623 -8.88178e-016 19.4658 6.69978 3.23504 -0.16473 -0.45259 2.36315 1.44228 -11.2025 6.26643 0 0 0 -1.93281 -2.12354 0.12108 0.02827 2.03559 -0.19338 6.7755 43.3733 9.24038 0.05672 2.04885 -0.04275 4.77376 -6.31837 10.7911 0 0 0 -2.09703 -11.7674 0.0573902 -0.05417 1.74624 0.17202 1.1971 25.0646 -0.890654 0.10407 1.76136 -0.12397 3.05857 13.4562 -1.54321 0 0 0 14.4143 -8.64392 23.8838 3.36241 1.20089 -0.31121 -77.9303 35.3495 6.60692 4.983 0 1.77636e-015 -26.6255 -4.724 -50.5712 3.48356 -1.77636e-015 0 4.16223 -0.154921 -0.376742 0 0 0 -0.121029 -5.06546e-007 -1.14815 0.71526 -1.77636e-015 4.44089e-016 4.44159e-016 1.59028e-015 5.15598e-016 0 0 0 -5.36719e-015 0 -3.97569e-016 0 0 0 -14.4459 -6.47213 -23.0698 -3.1366 1.37405 -0.40465 68.0006 13.1473 22.8231 -5.2419 0 4.44089e-016 -9.2261 37.8553 69.3505 -3.44417 0 1.77636e-015 3.03075 -1.10572 -0.623068 0 0 0 0.388209 -6.05242e-006 2.4941 -0.62253 0 -1.77636e-015 6.36111e-015 4.77083e-015 -3.97569e-015 0 0 0 0 0 -0 
